# xmcd
#
# Track frame offsets:
#	150
#	18317
#	39665
#	63660
#	80095
#	98695
#	113415
#	129305
#	146072
#	162845
#
# Disc length: 2635 seconds
#
# Revision: 0
# Processed by: cddbd v1.5.1PL0 Copyright (c) Steve Scherf et al.
# Submitted via: dBpowerAMP V4.0
#
DISCID=7e0a490a
DTITLE=Ronnie Moyer - Real Love
DYEAR=1998
DGENRE=Gospel
TTITLE0=Godly Man
TTITLE1=Love Waits
TTITLE2=Rebel to the Wrong
TTITLE3=He's Faithful
TTITLE4=When Answers Aren't Enough
TTITLE5=Love for Pleasure
TTITLE6=Love's not a Song
TTITLE7=Conqueror
TTITLE8=John
TTITLE9=Centurion Soldier
EXTD=
EXTT0=
EXTT1=
EXTT2=
EXTT3=
EXTT4=
EXTT5=
EXTT6=
EXTT7=
EXTT8=
EXTT9=
PLAYORDER=
